<svg width="260" height="260" viewBox="0 0 260 260" fill="none" xmlns="http://www.w3.org/2000/svg">
<rect width="107.746" height="107.746" transform="matrix(0.866025 -0.5 2.20305e-08 1 145.284 130)" fill="#BB2828"/>
<rect width="107.746" height="107.746" transform="matrix(0.866025 -0.5 0.866025 0.5 52.0835 76.1271)" fill="#F03131"/>
<rect width="107.746" height="107.746" transform="matrix(0.866025 0.5 -2.20305e-08 1 52.0835 76.1271)" fill="#F73F3F"/>
<rect width="31.1036" height="31.1036" transform="matrix(0.866025 -0.5 2.20305e-08 1 78.988 153.023)" fill="#414141"/>
<rect width="31.1036" height="31.1036" transform="matrix(0.866025 -0.5 0.866025 0.5 52.0835 137.471)" fill="#3A3A3A"/>
<rect width="31.1036" height="31.1036" transform="matrix(0.866025 0.5 -2.20305e-08 1 52.0835 137.471)" fill="#505050"/>
<rect width="36.5418" height="36.5418" transform="matrix(0.866025 -0.5 0.866025 0.5 113.638 76.0558)" fill="#3A3A3A"/>
<rect width="31.1036" height="31.1036" transform="matrix(0.866025 -0.5 2.20305e-08 1 105.925 168.646)" fill="#343434"/>
<rect width="31.1036" height="31.1036" transform="matrix(0.866025 -0.5 0.866025 0.5 79.02 153.094)" fill="#3A3A3A"/>
<rect width="31.1036" height="31.1036" transform="matrix(0.866025 0.5 -2.20305e-08 1 79.02 153.094)" fill="#505050"/>
<rect width="36.5705" height="36.5705" transform="matrix(0.866025 -0.5 2.20305e-08 1 179.55 145.801)" fill="#3A3A3A"/>
<path d="M90.8403 221.889L117.777 206.337L117.777 221.279L90.8403 236.831L90.8403 221.889Z" fill="#343434"/>
<path fill-rule="evenodd" clip-rule="evenodd" d="M79.0232 215.048L90.8721 221.889L117.809 206.337L105.96 199.496L79.0232 215.048Z" fill="#3A3A3A"/>
<path fill-rule="evenodd" clip-rule="evenodd" d="M79.02 229.988L90.8721 236.831V221.889L79.02 215.046V229.988Z" fill="#505050"/>
<path d="M25.1152 184.178L52.0517 168.626L52.0517 183.568L25.1152 199.12L25.1152 184.178Z" fill="#343434"/>
<path fill-rule="evenodd" clip-rule="evenodd" d="M13.2981 177.337L25.147 184.178L52.0835 168.626L40.2346 161.785L13.2981 177.337Z" fill="#3A3A3A"/>
<path fill-rule="evenodd" clip-rule="evenodd" d="M13.2949 192.277L25.147 199.12V184.178L13.2949 177.335V192.277Z" fill="#505050"/>
<rect width="9.42778" height="9.42778" transform="matrix(0.866025 -0.5 2.20305e-08 1 106.031 168.627)" fill="#C8C8C8"/>
<rect width="9.42778" height="9.42778" transform="matrix(0.866025 -0.5 0.866025 0.5 97.8755 163.913)" fill="#EFEFEF"/>
<rect width="9.42778" height="9.42778" transform="matrix(0.866025 0.5 -2.20305e-08 1 97.8755 163.913)" fill="white"/>
<rect width="9.42778" height="9.42778" transform="matrix(0.866025 -0.5 0.866025 0.5 52.0835 137.408)" fill="#EFEFEF"/>
<rect width="9.42778" height="9.42778" transform="matrix(0.866025 0.5 -2.20305e-08 1 52.0835 137.408)" fill="white"/>
</svg>
